<?xml version="1.0" encoding="utf-8"?>
<!-- Generator: Adobe Illustrator 19.1.0, SVG Export Plug-In . SVG Version: 6.00 Build 0)  -->
<svg version="1.1" id="Capa_1" xmlns="http://www.w3.org/2000/svg" xmlns:xlink="http://www.w3.org/1999/xlink" x="0px" y="0px"
	 viewBox="-296 387.6 18.4 18.4" style="enable-background:new -296 387.6 18.4 18.4;" xml:space="preserve">
<style type="text/css">
	.st0{fill:#5C1B2E;}
</style>
<g>
	<g>
		<g>
			<path class="st0" d="M-286.8,401.3c-2.5,0-4.5-2-4.5-4.5c0-2.5,2-4.5,4.5-4.5c2.5,0,4.5,2,4.5,4.5
				C-282.3,399.3-284.3,401.3-286.8,401.3z M-286.8,393c-2.1,0-3.8,1.7-3.8,3.8s1.7,3.8,3.8,3.8c2.1,0,3.8-1.7,3.8-3.8
				S-284.7,393-286.8,393z"/>
		</g>
		<g>
			<g>
				<path class="st0" d="M-287.9,395.7c0.1-0.1,0.1-0.3,0.2-0.4c0.1-0.1,0.2-0.2,0.3-0.3c0.1-0.1,0.3-0.1,0.5-0.1
					c0.2,0,0.4,0.1,0.6,0.1c0.1,0.1,0.3,0.1,0.3,0.2c0.1,0.1,0.2,0.2,0.2,0.3c0.1,0.1,0.1,0.2,0.1,0.3s0,0.3-0.1,0.4
					c-0.1,0.1-0.1,0.2-0.1,0.3s-0.1,0.1-0.2,0.2c-0.1,0.1-0.1,0.1-0.2,0.1c-0.1,0.1-0.1,0.1-0.2,0.2c-0.1,0.1-0.1,0.1-0.1,0.2v0.2
					h-0.7v-0.2c0-0.1,0.1-0.3,0.1-0.3c0.1-0.1,0.1-0.2,0.1-0.2c0.1-0.1,0.1-0.1,0.2-0.2c0.1-0.1,0.1-0.1,0.2-0.1
					c0.1-0.1,0.1-0.1,0.1-0.2c0.1-0.1,0.1-0.1,0.1-0.2c0-0.1-0.1-0.3-0.1-0.3c-0.1-0.1-0.2-0.1-0.3-0.1c-0.1,0-0.2,0-0.2,0.1
					c-0.1,0.1-0.1,0.1-0.2,0.1s-0.1,0.1-0.1,0.2c0,0.1-0.1,0.2-0.1,0.3h-0.8C-288.1,396-288.1,395.9-287.9,395.7z M-286.5,397.9v0.8
					h-0.8v-0.8H-286.5z"/>
			</g>
		</g>
	</g>
</g>
</svg>
