<?xml version="1.0" encoding="utf-8"?>
<!-- Generator: Adobe Illustrator 19.1.0, SVG Export Plug-In . SVG Version: 6.00 Build 0)  -->
<svg version="1.1" id="Layer_1" xmlns="http://www.w3.org/2000/svg" xmlns:xlink="http://www.w3.org/1999/xlink" x="0px" y="0px"
	 viewBox="0 0 469 192" style="enable-background:new 0 0 469 192;" xml:space="preserve">
<style type="text/css">
	.st0{fill:#FFFFFF;}
	.st1{opacity:0.38;}
</style>
<g>
	<g>
		<path class="st0" d="M404.8,131.7c-1.3-0.2-2.6-0.1-3.6,0.3c-0.7,0.3-1.4,0.7-1.9,1.3c-0.5,0.6-0.9,1.3-1.2,2.1
			c-0.3,0.8-0.4,1.8-0.4,2.9v1.8h-3.1v1.2c0,0.2,0.1,0.8,0.9,0.9l2.1,0.1v16.3h2.7v-16.3h5.8v-2.2h-5.9v-1.8c0-0.9,0.1-1.6,0.3-2.2
			c0.2-0.6,0.4-1,0.7-1.3c0.3-0.3,0.7-0.6,1.1-0.7c0.5-0.2,1-0.2,1.5-0.2c0.3,0,0.5,0,0.7,0c0.2,0,0.5,0.1,0.7,0.1
			c0.2,0,0.3,0,0.4-0.1c0.1,0,0.4-0.2,0.5-0.6l0.1-1.2l-0.3-0.1C405.6,131.8,405.2,131.7,404.8,131.7"/>
		<path class="st0" d="M414.9,137.3c0.2-0.1,0.3-0.2,0.5-0.4l4.6-5.4h-2.7c-0.4,0-0.7,0.1-0.9,0.2c-0.2,0.1-0.4,0.3-0.6,0.6
			l-3.3,5.1h1.9C414.5,137.4,414.7,137.4,414.9,137.3"/>
		<path class="st0" d="M419.9,141.2c-0.5-0.6-1.2-1.1-2-1.5c-0.8-0.3-1.7-0.5-2.7-0.5c-1.4,0-2.7,0.3-3.8,0.8
			c-1.1,0.5-2.1,1.3-3.1,2.2l-0.3,0.3l0.5,0.8c0.1,0.1,0.2,0.3,0.3,0.4c0.4,0.3,0.9,0.3,1.6-0.3c0.2-0.2,0.6-0.5,1-0.8
			c0.4-0.3,0.9-0.5,1.5-0.8c0.6-0.2,1.3-0.3,2.1-0.3c1.3,0,2.2,0.4,2.9,1.2c0.7,0.8,1,2,1,3.6v1.4c-1.9,0.1-3.5,0.2-4.9,0.5
			c-1.5,0.3-2.8,0.7-3.7,1.2c-1,0.5-1.8,1.1-2.2,1.9c-0.5,0.7-0.7,1.5-0.7,2.4c0,0.9,0.2,1.7,0.5,2.3c0.3,0.6,0.7,1.2,1.2,1.6
			c0.5,0.4,1.1,0.7,1.7,0.9c0.6,0.2,1.3,0.3,1.9,0.3c0.8,0,1.5-0.1,2.1-0.2c0.7-0.1,1.3-0.4,1.8-0.6c0.6-0.3,1.1-0.6,1.6-1
			c0.3-0.2,0.6-0.5,0.8-0.7l0.2,1.5c0.1,0.5,0.5,0.9,1.1,0.9h1.2v-12.3c0-1.1-0.1-2-0.4-2.9C420.8,142.6,420.5,141.8,419.9,141.2
			 M416.4,155.9c-0.5,0.3-1,0.5-1.5,0.6c-0.9,0.2-2.1,0.3-3.1,0c-0.4-0.1-0.7-0.3-1-0.5c-0.3-0.2-0.5-0.6-0.7-0.9
			c-0.2-0.4-0.3-0.9-0.3-1.4c0-0.5,0.2-1,0.5-1.4c0.3-0.4,0.9-0.8,1.6-1.2c0.8-0.3,1.8-0.6,3-0.8c1.1-0.2,2.4-0.3,3.9-0.4v4.1
			c-0.4,0.4-0.8,0.7-1.1,1.1C417.3,155.4,416.9,155.7,416.4,155.9"/>
		<path class="st0" d="M438.1,155c-0.2,0.2-0.5,0.4-0.8,0.6c-0.4,0.2-0.8,0.4-1.4,0.6c-0.5,0.2-1.2,0.3-2,0.3
			c-0.9,0-1.7-0.2-2.4-0.5c-0.7-0.3-1.3-0.8-1.8-1.4c-0.5-0.6-0.9-1.4-1.2-2.3c-0.3-0.9-0.4-2-0.4-3.3c0-1.2,0.1-2.3,0.4-3.2
			c0.3-0.9,0.7-1.7,1.2-2.4c0.5-0.6,1.1-1.1,1.9-1.5c0.7-0.3,1.6-0.5,2.6-0.5c0.7,0,1.3,0.1,1.8,0.2c0.5,0.2,0.9,0.3,1.2,0.5
			c0.3,0.2,0.6,0.3,0.8,0.5c0.6,0.4,1,0.4,1.3,0.2c0.1-0.1,0.1-0.1,0.3-0.2l0.7-0.9l-0.3-0.3c-0.7-0.7-1.6-1.2-2.5-1.6
			c-1-0.4-2.1-0.6-3.3-0.6c-1.4,0-2.6,0.2-3.7,0.7c-1.1,0.5-2,1.2-2.7,2c-0.7,0.9-1.3,1.9-1.7,3.1c-0.4,1.2-0.6,2.5-0.6,3.9
			c0,1.5,0.2,2.9,0.6,4.1c0.4,1.2,1,2.2,1.7,3.1c0.7,0.8,1.6,1.5,2.6,1.9c1,0.4,2.1,0.7,3.4,0.7c0.7,0,1.4-0.1,2.1-0.2
			c0.7-0.1,1.3-0.3,1.8-0.6c0.6-0.2,1.1-0.5,1.5-0.9c0.5-0.3,0.8-0.7,1.2-1.1l0.2-0.3l-0.7-0.9C439.3,154.5,438.7,154.4,438.1,155"
			/>
		<path class="st0" d="M446.6,132.3c-0.2-0.2-0.4-0.3-0.7-0.5c-0.5-0.2-1.1-0.2-1.6,0c-0.2,0.1-0.5,0.3-0.7,0.4
			c-0.2,0.2-0.3,0.4-0.4,0.7c-0.1,0.3-0.2,0.5-0.2,0.8c0,0.3,0.1,0.6,0.2,0.8c0.1,0.2,0.3,0.5,0.4,0.6c0.2,0.2,0.4,0.3,0.7,0.4
			c0.3,0.1,0.5,0.2,0.8,0.2c0.3,0,0.6-0.1,0.8-0.2c0.2-0.1,0.5-0.3,0.7-0.4c0.2-0.2,0.3-0.4,0.4-0.6c0.1-0.2,0.2-0.5,0.2-0.8
			c0-0.3-0.1-0.6-0.2-0.8C446.9,132.7,446.8,132.4,446.6,132.3"/>
		<rect x="443.8" y="139.5" class="st0" width="2.7" height="19.1"/>
		<rect x="451.9" y="131.1" class="st0" width="2.7" height="27.5"/>
		<path class="st0" d="M463.5,155.9c-0.1-0.3-0.3-0.5-0.5-0.7c-0.2-0.2-0.4-0.3-0.7-0.5c-0.5-0.2-1.2-0.2-1.7,0
			c-0.3,0.1-0.5,0.3-0.7,0.5c-0.2,0.2-0.3,0.4-0.5,0.7c-0.1,0.3-0.2,0.5-0.2,0.8c0,0.6,0.2,1.1,0.6,1.5c0.4,0.4,0.9,0.6,1.5,0.6
			c0.3,0,0.6-0.1,0.8-0.2c0.3-0.1,0.5-0.3,0.7-0.5c0.2-0.2,0.3-0.4,0.5-0.7c0.1-0.3,0.2-0.6,0.2-0.9
			C463.7,156.5,463.6,156.2,463.5,155.9"/>
		<polygon class="st0" points="164.4,133.2 143.4,133.2 143.4,135.7 152.6,135.7 152.6,159.9 155.4,159.9 155.4,135.7 164.4,135.7 
					"/>
		<path class="st0" d="M175.1,154.8c-0.8,1-1.6,1.7-2.5,2.3c-0.9,0.6-2,0.8-3.1,0.8c-1.5,0-2.5-0.4-3.2-1.3
			c-0.7-0.9-1.1-2.1-1.1-3.7v-12.1h-2.7v12.1c0,1.1,0.1,2.1,0.4,3c0.3,0.9,0.7,1.7,1.2,2.3c0.5,0.7,1.2,1.2,2.1,1.5
			c0.8,0.3,1.8,0.5,2.8,0.5c1.4,0,2.7-0.3,3.9-1c0.8-0.5,1.6-1.1,2.3-1.8l0.1,1.6c0.1,0.5,0.5,0.9,1,0.9h1.4v-19.1h-2.7V154.8z"/>
		<path class="st0" d="M215.5,142.5c-0.5-0.6-1.2-1.1-2-1.4c-1.3-0.5-3-0.6-4.6-0.2c-0.7,0.2-1.3,0.5-1.8,0.9
			c-0.6,0.4-1,0.9-1.5,1.5c-0.2,0.2-0.3,0.5-0.5,0.8c-0.3-0.8-0.8-1.6-1.4-2.1c-0.9-0.8-2.1-1.3-3.5-1.3c-1.2,0-2.4,0.3-3.3,1
			c-0.6,0.4-1.2,1-1.8,1.6l-0.1-1.5c-0.1-0.5-0.5-0.8-1-0.8h-1.4v19.1h2.7v-14.1c0.6-0.9,1.3-1.7,2-2.2c0.8-0.5,1.6-0.8,2.5-0.8
			c1.2,0,2.1,0.4,2.7,1.2c0.6,0.9,1,2.1,1,3.8v12.1h2.7v-12.1c0-0.8,0.1-1.6,0.4-2.2c0.2-0.6,0.6-1.1,1-1.6c0.4-0.4,0.9-0.7,1.4-0.9
			c0.5-0.2,1.1-0.3,1.6-0.3c1.3,0,2.2,0.4,2.9,1.2c0.7,0.8,1,2.1,1,3.8v12.1h2.7v-12.1c0-1.1-0.1-2.2-0.4-3.1
			C216.5,143.9,216.1,143.1,215.5,142.5"/>
		<path class="st0" d="M234.4,154.8c-0.8,1-1.6,1.7-2.5,2.3c-0.9,0.6-2,0.8-3.1,0.8c-1.5,0-2.5-0.4-3.2-1.3
			c-0.7-0.9-1.1-2.1-1.1-3.7v-12.1h-2.7v12.1c0,1.1,0.1,2.1,0.4,3c0.3,0.9,0.7,1.7,1.2,2.3c0.5,0.7,1.2,1.2,2.1,1.5
			c0.8,0.3,1.8,0.5,2.8,0.5c1.4,0,2.7-0.3,3.9-1c0.8-0.5,1.6-1.1,2.3-1.8l0.1,1.6c0.1,0.5,0.5,0.9,1,0.9h1.4v-19.1h-2.7V154.8z"/>
		<path class="st0" d="M255.8,142.6c-0.5-0.6-1.2-1.2-2.1-1.5c-0.8-0.3-1.8-0.5-2.8-0.5c-1.4,0-2.8,0.3-3.9,1
			c-0.8,0.5-1.6,1.1-2.3,1.8l-0.1-1.7c-0.1-0.5-0.5-0.8-1-0.8h-1.4v19.1h2.7v-14c0.7-1,1.6-1.7,2.5-2.3c0.9-0.6,2-0.8,3.1-0.8
			c1.5,0,2.5,0.4,3.2,1.3c0.7,0.9,1.1,2.1,1.1,3.7v12.1h2.7v-12.1c0-1.1-0.1-2.1-0.4-3C256.7,144,256.3,143.2,255.8,142.6"/>
		<path class="st0" d="M274.6,142.5c-0.5-0.5-1.1-0.9-1.7-1.2c-1-0.5-2.1-0.7-3.4-0.7c-1.3,0-2.6,0.3-3.6,0.8
			c-1,0.5-1.9,1.2-2.6,2.1c-0.7,0.9-1.2,1.9-1.6,3.1c-0.4,1.2-0.5,2.5-0.5,3.8c0,3.2,0.7,5.6,2,7.2c1.3,1.7,3.2,2.5,5.6,2.5
			c1.4,0,2.7-0.3,3.9-1c0.8-0.5,1.5-1.1,2.2-1.8l0.1,1.7c0.1,0.5,0.5,0.9,1,0.9h1.4v-27.5h-2.7V142.5z M272.2,157
			c-0.9,0.6-1.9,0.9-3,0.9c-1.7,0-3-0.6-3.9-1.7c-0.9-1.2-1.4-3.1-1.4-5.7c0-1.1,0.1-2.2,0.4-3.2c0.3-0.9,0.6-1.7,1.1-2.4
			c0.5-0.7,1.1-1.2,1.9-1.5c0.7-0.4,1.6-0.5,2.6-0.5c1,0,1.9,0.2,2.7,0.6c0.7,0.4,1.4,1,2.1,1.9v9.2
			C273.9,155.6,273.1,156.4,272.2,157"/>
		<path class="st0" d="M296.5,143.3c-0.7-0.9-1.7-1.5-2.8-2c-1.1-0.5-2.3-0.7-3.7-0.7c-1.4,0-2.6,0.2-3.7,0.7c-1.1,0.5-2,1.1-2.8,2
			c-0.7,0.9-1.3,1.9-1.7,3.1c-0.4,1.2-0.6,2.5-0.6,4c0,1.5,0.2,2.8,0.6,4c0.4,1.2,1,2.2,1.7,3.1c0.8,0.9,1.7,1.5,2.8,2
			c1.1,0.5,2.3,0.7,3.7,0.7c1.4,0,2.6-0.2,3.7-0.7c1.1-0.5,2-1.1,2.8-2c0.7-0.9,1.3-1.9,1.7-3.1c0.4-1.2,0.6-2.5,0.6-4
			c0-1.5-0.2-2.8-0.6-4C297.8,145.2,297.2,144.1,296.5,143.3 M296,150.4c0,1.2-0.1,2.2-0.4,3.2c-0.2,0.9-0.6,1.7-1.1,2.3
			c-0.5,0.6-1.1,1.1-1.9,1.5c-0.7,0.3-1.6,0.5-2.6,0.5c-1,0-1.9-0.2-2.6-0.5c-0.7-0.3-1.4-0.8-1.9-1.5c-0.5-0.6-0.9-1.4-1.1-2.3
			c-0.3-0.9-0.4-2-0.4-3.2c0-1.2,0.1-2.2,0.4-3.2c0.3-0.9,0.6-1.7,1.1-2.4c0.5-0.6,1.1-1.1,1.9-1.5c0.7-0.3,1.6-0.5,2.6-0.5
			c1,0,1.9,0.2,2.6,0.5c0.7,0.3,1.4,0.8,1.9,1.5c0.5,0.6,0.9,1.4,1.1,2.4C295.9,148.2,296,149.2,296,150.4"/>
		<path class="st0" d="M317.9,157v-17.8h3.3c0.7,0,1.1,0.3,1.3,0.9l0.3,1c0.3-0.3,0.6-0.6,0.9-0.9c0.3-0.3,0.7-0.5,1-0.7
			c0.4-0.2,0.8-0.3,1.2-0.4c0.4-0.1,0.9-0.2,1.4-0.2c1.1,0,2,0.3,2.7,0.8c0.7,0.6,1.2,1.3,1.6,2.2c0.3-0.5,0.7-1,1.1-1.4
			c0.4-0.4,0.9-0.7,1.4-0.9c0.5-0.2,1-0.4,1.6-0.5c0.6-0.1,1.1-0.2,1.7-0.2c1,0,1.9,0.2,2.7,0.5c0.8,0.3,1.5,0.7,2,1.3
			c0.5,0.6,0.9,1.3,1.2,2.1c0.3,0.8,0.4,1.8,0.4,2.9V157h-5.3v-11.3c0-1.8-0.8-2.8-2.4-2.8c-0.7,0-1.3,0.2-1.8,0.7
			c-0.5,0.5-0.7,1.2-0.7,2.1V157h-5.3v-11.3c0-1-0.2-1.7-0.6-2.1c-0.4-0.4-1-0.6-1.8-0.6c-0.5,0-0.9,0.1-1.4,0.3
			c-0.4,0.2-0.8,0.5-1.2,0.9V157H317.9z"/>
		<path class="st0" d="M359.1,157c-0.5,0-0.9-0.1-1.1-0.2c-0.3-0.1-0.5-0.4-0.6-0.9l-0.4-1c-0.4,0.4-0.9,0.7-1.3,1
			c-0.4,0.3-0.8,0.5-1.3,0.7c-0.4,0.2-0.9,0.3-1.4,0.4c-0.5,0.1-1,0.1-1.7,0.1c-0.8,0-1.6-0.1-2.2-0.3s-1.2-0.5-1.7-0.9
			c-0.5-0.4-0.8-0.9-1.1-1.5c-0.3-0.6-0.4-1.3-0.4-2.1c0-0.6,0.2-1.3,0.5-1.9c0.3-0.7,0.9-1.3,1.7-1.8c0.8-0.5,1.9-1,3.2-1.4
			c1.3-0.4,3-0.6,5.1-0.6v-0.8c0-1-0.2-1.8-0.6-2.3c-0.4-0.5-1-0.7-1.8-0.7c-0.6,0-1.1,0.1-1.5,0.2c-0.4,0.1-0.8,0.3-1.1,0.5
			c-0.3,0.2-0.6,0.3-0.9,0.5c-0.3,0.1-0.7,0.2-1.1,0.2c-0.4,0-0.7-0.1-0.9-0.3c-0.3-0.2-0.5-0.4-0.6-0.7l-1-1.7
			c1.1-0.9,2.3-1.7,3.6-2.1c1.3-0.5,2.7-0.7,4.2-0.7c1.1,0,2,0.2,2.9,0.5c0.9,0.3,1.6,0.8,2.2,1.5c0.6,0.6,1.1,1.4,1.4,2.2
			c0.3,0.9,0.5,1.8,0.5,2.8V157H359.1z M353,153.7c0.7,0,1.3-0.1,1.8-0.4c0.5-0.2,1-0.6,1.6-1.2v-2.5c-1.1,0-1.9,0.1-2.6,0.3
			c-0.7,0.1-1.2,0.3-1.6,0.5c-0.4,0.2-0.7,0.4-0.8,0.7c-0.2,0.3-0.2,0.6-0.2,0.9c0,0.6,0.2,1,0.5,1.3
			C351.8,153.6,352.3,153.7,353,153.7 M360.9,131.7l-4.5,4.5c-0.3,0.3-0.5,0.4-0.8,0.6c-0.2,0.1-0.6,0.2-1,0.2h-3.2l2.3-4.2
			c0.2-0.3,0.4-0.6,0.7-0.8c0.3-0.2,0.7-0.3,1.2-0.3H360.9z"/>
		<path class="st0" d="M376.2,143c-0.1,0.2-0.3,0.4-0.4,0.5c-0.2,0.1-0.4,0.1-0.6,0.1c-0.3,0-0.5-0.1-0.8-0.2
			c-0.3-0.1-0.5-0.2-0.8-0.4c-0.3-0.1-0.6-0.2-1-0.4c-0.4-0.1-0.8-0.2-1.3-0.2c-0.7,0-1.2,0.1-1.6,0.4c-0.4,0.3-0.5,0.6-0.5,1.1
			c0,0.3,0.1,0.6,0.4,0.8c0.2,0.2,0.5,0.4,0.9,0.6c0.4,0.2,0.8,0.3,1.3,0.5c0.5,0.1,1,0.3,1.5,0.5c0.5,0.2,1,0.4,1.5,0.6
			c0.5,0.2,0.9,0.6,1.3,0.9c0.4,0.4,0.7,0.8,0.9,1.3c0.2,0.5,0.4,1.1,0.4,1.9c0,0.9-0.2,1.7-0.5,2.4c-0.3,0.7-0.8,1.4-1.4,1.9
			c-0.6,0.5-1.4,1-2.4,1.3c-0.9,0.3-2,0.4-3.2,0.4c-0.6,0-1.2-0.1-1.8-0.2c-0.6-0.1-1.2-0.3-1.8-0.5c-0.6-0.2-1.1-0.4-1.6-0.7
			c-0.5-0.3-0.9-0.6-1.2-0.9l1.2-2c0.1-0.2,0.3-0.4,0.5-0.5c0.2-0.1,0.5-0.2,0.8-0.2c0.3,0,0.6,0.1,0.8,0.2c0.2,0.1,0.5,0.3,0.8,0.4
			c0.3,0.2,0.6,0.3,1,0.4c0.4,0.1,0.9,0.2,1.5,0.2c0.4,0,0.8,0,1-0.1c0.3-0.1,0.5-0.2,0.7-0.4c0.2-0.1,0.3-0.3,0.4-0.5
			c0.1-0.2,0.1-0.4,0.1-0.6c0-0.4-0.1-0.6-0.4-0.9c-0.2-0.2-0.6-0.4-0.9-0.6c-0.4-0.2-0.8-0.3-1.3-0.5c-0.5-0.1-1-0.3-1.5-0.5
			c-0.5-0.2-1-0.4-1.5-0.7c-0.5-0.3-0.9-0.6-1.3-1c-0.4-0.4-0.7-0.9-0.9-1.5c-0.2-0.6-0.4-1.3-0.4-2.1c0-0.8,0.1-1.5,0.4-2.2
			c0.3-0.7,0.7-1.3,1.3-1.8c0.6-0.5,1.3-0.9,2.2-1.2c0.9-0.3,1.9-0.5,3.1-0.5c0.6,0,1.3,0.1,1.9,0.2c0.6,0.1,1.2,0.3,1.7,0.5
			c0.5,0.2,1,0.5,1.4,0.7c0.4,0.3,0.8,0.6,1.1,0.9L376.2,143z"/>
		<path class="st0" d="M346.1,183.9c-11.9,0-22.5-5.7-29.3-14.5l-2.6,2.6c7.4,9.5,19,15.5,31.9,15.5c12.9,0,24.5-6.1,31.9-15.5
			l-2.6-2.6C368.6,178.2,358,183.9,346.1,183.9"/>
		<g class="st1">
			<g>
				<path class="st0" d="M346.1,106.5c-22.4,0-40.6,18.2-40.6,40.6c0,9.4,3.2,18.1,8.6,25l2.6-2.6c-4.8-6.2-7.6-14-7.6-22.4
					c0-20.3,16.6-36.9,36.9-36.9c20.3,0,36.9,16.5,36.9,36.9c0,8.4-2.8,16.2-7.6,22.4l2.6,2.6c5.4-6.9,8.7-15.6,8.7-25
					C386.6,124.7,368.4,106.5,346.1,106.5"/>
			</g>
		</g>
		<path class="st0" d="M51.3,55.4c4.8-2.5,7.2-6.4,7.2-11.6c0-5.8-2.8-10.1-8.3-13.4c-2.5-1.4-6.7-2-12.8-2H7.8v60.1h27.9
			c9.5,0,16.1-1,20.9-6.5c2.9-3.3,4.5-7.4,4.5-12.1C61,62.9,57.4,57.9,51.3,55.4 M25.4,42.1h8.5c4.8,0,7.1,1.2,7.1,4.8
			c0,3.7-2.2,5-7.1,5h-8.5V42.1z M35.5,74.6H25.4V63.2h10c5.1,0,7.7,1.8,7.7,5.7C43.1,72.8,40.5,74.6,35.5,74.6 M375.2,88.5h19.4
			V28.4h-19.4V88.5z M286.4,66.9h19.2V50h-19.2v-4.6H315v-17h-48v60.1h48V71.6h-28.6V66.9z M430.5,28.4c-18.5,0-33.4,13.5-33.4,30
			c0,16.6,15,30,33.4,30c18.5,0,33.4-13.5,33.4-30C463.9,41.9,448.9,28.4,430.5,28.4 M430.5,71.6c-8.1,0-14.6-5.9-14.6-13.1
			c0-7.2,6.5-13.1,14.6-13.1c8.1,0,14.6,5.9,14.6,13.1C445.1,65.7,438.5,71.6,430.5,71.6 M168.9,59.5l-21.5-31.1H128v60.1h19.4V57.4
			l21.5,31.1h19.4V28.4h-19.4V59.5z M81.7,28.4L57.4,88.5h20.5l5.5-16.6h18.1l5,16.6h20L104,28.4H81.7z M88.8,55.3l4-12.3l3.7,12.3
			H88.8z M314.7,58.5c0,16.6,15,30,33.4,30h24.5V52.7h-26.3v14.3h9.7v4.6h-7.9v0h0c-8.1,0-14.6-5.9-14.6-13.1
			c0-7.2,6.5-13.1,14.6-13.1h24.5v-17h-24.5C329.7,28.4,314.7,41.9,314.7,58.5 M243.2,60.9c0-0.9,0.3-1.8,1.1-2.3
			c8.2-4.4,14.5-14.2,14.5-23.2c0-15.7-15-28.4-33.4-28.4h-34.6v81.5h21.8V26.2h12.8c6.6,0,12,4.8,12,10.8c0,6-5.5,9.7-12,10.8
			c-5.9,1-9.2,6-9.2,10.5c0,3.6,1.6,6.5,2.9,8.1l29.3,36.5h28l-32.5-40.5C243.4,62.1,243.2,61.5,243.2,60.9"/>
	</g>
</g>
</svg>
