<?xml version="1.0" encoding="utf-8"?>
<!-- Generator: Adobe Illustrator 19.1.0, SVG Export Plug-In . SVG Version: 6.00 Build 0)  -->
<svg version="1.1" id="Layer_1" xmlns="http://www.w3.org/2000/svg" xmlns:xlink="http://www.w3.org/1999/xlink" x="0px" y="0px"
	 viewBox="0 0 70.9 45.4" style="enable-background:new 0 0 70.9 45.4;" xml:space="preserve">
<style type="text/css">
	.st0{fill:#59595B;}
</style>
<path class="st0" d="M33.9,6.1c-0.2-0.2-0.3-0.4-0.3-0.7s0.1-0.5,0.3-0.7c0.2-0.2,0.4-0.3,0.7-0.3s0.5,0.1,0.7,0.3
	c0.2,0.2,0.3,0.4,0.3,0.7s-0.1,0.5-0.3,0.7c-0.2,0.2-0.4,0.3-0.7,0.3C34.3,6.4,34,6.3,33.9,6.1z M52.1,13.9C52,14,51.8,14,51.6,14
	c-0.3,0-0.7-0.2-0.8-0.5c-0.3-0.5-0.2-1.1,0.3-1.3c0.5-0.3,1.1-0.2,1.3,0.3C52.7,13,52.6,13.6,52.1,13.9z M41.5,5.6
	c0.2-0.5,0.7-0.8,1.2-0.6c0.5,0.2,0.8,0.7,0.6,1.2c-0.2,0.4-0.5,0.7-0.9,0.7c-0.1,0-0.2,0-0.3-0.1C41.6,6.7,41.3,6.1,41.5,5.6z
	 M37.6,5.1c0.1-0.5,0.5-0.9,1-0.9c0.5,0.1,0.9,0.5,0.9,1c-0.1,0.5-0.5,0.9-1,0.9h-0.1C37.9,6.1,37.5,5.6,37.6,5.1z M45.2,7
	c0.3-0.5,0.9-0.6,1.3-0.3C47,7,47.2,7.6,46.9,8c-0.2,0.3-0.5,0.5-0.8,0.5c-0.2,0-0.4-0.1-0.5-0.2C45.1,8,44.9,7.5,45.2,7z M49.8,9.3
	c0.4,0.4,0.4,1,0,1.4c-0.2,0.2-0.5,0.3-0.7,0.3c-0.3,0-0.5-0.1-0.7-0.3c-0.4-0.4-0.4-1,0-1.4C48.9,8.9,49.5,8.9,49.8,9.3z
	 M53.9,19.6c0.5-0.1,1,0.4,1,0.9c0.1,0.5-0.4,1-0.9,1H54c-0.5,0-0.9-0.4-1-0.9C53,20.1,53.4,19.6,53.9,19.6z M53.2,17.7
	c-0.4,0-0.8-0.3-0.9-0.7c-0.2-0.5,0.1-1.1,0.6-1.2c0.5-0.2,1.1,0.1,1.2,0.6c0.2,0.5-0.1,1.1-0.6,1.2C53.4,17.6,53.3,17.7,53.2,17.7z
	 M54.4,23.8c0.2,0.2,0.3,0.4,0.3,0.7s-0.1,0.5-0.3,0.7c-0.2,0.2-0.4,0.3-0.7,0.3s-0.5-0.1-0.7-0.3c-0.2-0.2-0.3-0.4-0.3-0.7
	s0.1-0.5,0.3-0.7c0.2-0.2,0.4-0.3,0.7-0.3C54,23.6,54.3,23.7,54.4,23.8z M35.5,11.6c0.2,0.2,0.3,0.4,0.3,0.7s-0.1,0.5-0.3,0.7
	c-0.2,0.2-0.4,0.3-0.7,0.3s-0.5-0.1-0.7-0.3c-0.2-0.2-0.3-0.4-0.3-0.7s0.1-0.5,0.3-0.7c0.2-0.2,0.4-0.3,0.7-0.3S35.3,11.5,35.5,11.6
	z M39.7,12.6c-0.1,0.5-0.5,0.8-0.9,0.8c-0.1,0-0.2,0-0.2,0c-0.5-0.1-0.9-0.6-0.8-1.1c0.1-0.5,0.6-0.9,1.1-0.8
	C39.5,11.5,39.8,12,39.7,12.6z M41.6,13.4c0.3-0.5,0.9-0.6,1.3-0.3c0.5,0.3,0.6,0.9,0.3,1.3c-0.2,0.3-0.5,0.4-0.8,0.4
	c-0.2,0-0.4-0.1-0.6-0.2C41.4,14.4,41.3,13.8,41.6,13.4z M47.7,20.2c0.1,0.5-0.2,1-0.8,1.1c-0.1,0-0.2,0-0.2,0
	c-0.5,0-0.9-0.3-0.9-0.8c-0.1-0.5,0.2-1,0.8-1.1C47.1,19.3,47.6,19.6,47.7,20.2z M44.4,17.3c-0.3-0.5-0.2-1,0.3-1.3
	c0.5-0.3,1-0.2,1.3,0.3c0.3,0.5,0.2,1-0.3,1.3c-0.2,0.1-0.4,0.2-0.6,0.2C44.9,17.7,44.6,17.5,44.4,17.3z M47.5,23.6
	c0.2,0.2,0.3,0.4,0.3,0.7s-0.1,0.5-0.3,0.7c-0.2,0.2-0.4,0.3-0.7,0.3s-0.5-0.1-0.7-0.3c-0.2-0.2-0.3-0.4-0.3-0.7s0.1-0.5,0.3-0.7
	c0.2-0.2,0.4-0.3,0.7-0.3S47.3,23.4,47.5,23.6z M47,36.5c-0.3,0.3-0.5,0.5-0.8,0.8c-0.5,0.5-1,1-1.5,1.6c-0.8,0.9-1.7,1.2-3.1,1.1
	c-1.7-0.1-3.6-0.6-5.7-1.7l0,0c-4.1-2-7.7-4.8-10.7-8.4c-2.4-2.9-4.1-5.7-5.2-8.7c-0.7-1.8-0.9-3.2-0.8-4.6c0.1-0.9,0.4-1.5,1-2.1
	c0.5-0.5,1-1,1.5-1.5c0.3-0.4,0.7-0.7,1-1c0.7-0.7,1.5-0.7,2.2,0c0.5,0.5,0.9,0.9,1.4,1.4l1.2,1.2c0.5,0.5,0.9,0.9,1.3,1.4
	c0.8,0.8,0.8,1.5,0,2.3l-0.5,0.5c-0.7,0.7-1.3,1.3-2,2c-0.4,0.4-0.7,0.9-0.4,1.7c0.5,1.2,1.3,2.5,2.4,3.8c2.1,2.5,4.2,4.4,6.5,5.9
	c0.4,0.2,0.7,0.4,1.1,0.6c0.2,0.1,0.4,0.2,0.6,0.3c0.2,0.1,0.5,0.2,0.8,0.2c0.3,0,0.7-0.1,1.1-0.5l0,0c0.7-0.8,1.5-1.5,2.3-2.3
	l0.2-0.2c0.7-0.7,1.5-0.7,2.2,0c1.3,1.3,2.7,2.7,4,4C47.8,35,47.7,35.8,47,36.5z M44.4,28.9c-1.5-1.4-3.4-1.4-4.9,0l-0.2,0.2
	c-0.7,0.7-1.4,1.4-2.1,2.1c-0.2-0.1-0.3-0.2-0.4-0.2c-0.3-0.2-0.6-0.3-0.9-0.5c-2.2-1.3-4.1-3.1-6-5.5c-0.9-1.1-1.5-2.1-2-3.1
	c0.6-0.6,1.2-1.2,1.8-1.8l0.5-0.5c1.5-1.5,1.5-3.5,0-5c-0.5-0.5-0.9-0.9-1.4-1.4L27.5,12c-0.5-0.5-0.9-0.9-1.4-1.4
	c-1.5-1.4-3.4-1.4-4.9,0c-0.4,0.4-0.7,0.7-1,1c-0.5,0.5-1,1-1.5,1.4c-0.9,0.9-1.5,2.1-1.6,3.4c-0.2,2.1,0.4,4,1,5.4
	c1.2,3.2,3,6.2,5.5,9.2c3.2,3.8,7,6.8,11.3,8.9l0,0c2.4,1.2,4.5,1.7,6.5,1.9c0.2,0,0.3,0,0.5,0c1.7,0,3.1-0.6,4.2-1.8
	c0.5-0.5,0.9-1,1.4-1.5c0.3-0.3,0.5-0.5,0.8-0.8c1.5-1.5,1.5-3.5,0-5C47.1,31.5,45.7,30.2,44.4,28.9z"/>
</svg>
