<?xml version="1.0" encoding="utf-8"?>
<!-- Generator: Adobe Illustrator 19.1.0, SVG Export Plug-In . SVG Version: 6.00 Build 0)  -->
<svg version="1.1" id="Layer_1" xmlns="http://www.w3.org/2000/svg" xmlns:xlink="http://www.w3.org/1999/xlink" x="0px" y="0px"
	 viewBox="0 0 70.9 45.4" style="enable-background:new 0 0 70.9 45.4;" xml:space="preserve">
<style type="text/css">
	.st0{fill:#59595B;}
	.st1{fill:#2FC75D;}
	.st2{fill:none;stroke:#59595B;stroke-miterlimit:10;}
</style>
<path class="st0" d="M6,12.1h50.9v28.2c0,0.4-0.3,0.6-0.6,0.6H6.6c-0.4,0-0.6-0.3-0.6-0.6V12.1z M19.1,7.3c0.3,0,0.6,0.3,0.6,0.6
	c0,0.3-0.2,0.6-0.6,0.6c-0.3,0-0.6-0.3-0.6-0.6C18.5,7.6,18.8,7.3,19.1,7.3z M14.3,7.3c0.3,0,0.6,0.3,0.6,0.6c0,0.3-0.2,0.6-0.6,0.6
	c-0.3,0-0.6-0.3-0.6-0.6C13.7,7.6,13.9,7.3,14.3,7.3z M9.4,7.3c0.3,0,0.6,0.3,0.6,0.6c0,0.3-0.3,0.6-0.6,0.6c-0.3,0-0.6-0.3-0.6-0.6
	C8.8,7.6,9.1,7.3,9.4,7.3z M19.1,6.1c-1,0-1.8,0.8-1.8,1.8c0,1,0.8,1.8,1.8,1.8c1,0,1.8-0.8,1.8-1.8C20.9,6.9,20.1,6.1,19.1,6.1z
	 M14.3,6.1c-1,0-1.8,0.8-1.8,1.8c0,1,0.8,1.8,1.8,1.8c1,0,1.8-0.8,1.8-1.8C16,6.9,15.2,6.1,14.3,6.1z M9.4,6.1c-1,0-1.8,0.8-1.8,1.8
	c0,1,0.8,1.8,1.8,1.8c1,0,1.8-0.8,1.8-1.8C11.2,6.9,10.4,6.1,9.4,6.1z M24.1,5h32.2c0.4,0,0.6,0.3,0.6,0.6v5.2H26.3l-2.1-5.4
	C24.2,5.3,24.1,5.1,24.1,5z M6.6,5H22c0.4,0,1.1,0.4,1.2,0.8l1.9,5H6V5.6C6,5.2,6.2,5,6.6,5z M6.6,3.8c-1,0-1.8,0.8-1.8,1.8v34.6
	c0,1,0.8,1.8,1.8,1.8h49.7c1,0,1.8-0.8,1.8-1.8V5.6c0-1-0.8-1.8-1.8-1.8L6.6,3.8L6.6,3.8z"/>
<path class="st1" d="M19.9,21.2c0-0.6,0.5-1,1-1c0.5,0,1,0.5,1,1v0.7c0,0,0,0.1-0.1,0.1h-1.9c0,0-0.1,0-0.1-0.1L19.9,21.2L19.9,21.2
	z M22.6,22h-0.3c0,0-0.1,0-0.1-0.1v-0.7c0-0.8-0.6-1.4-1.4-1.5c-0.8,0-1.5,0.6-1.5,1.4v0.7c0,0,0,0.1-0.1,0.1H19
	c-0.1,0-0.2,0.1-0.2,0.2v2.6c0,0.1,0.1,0.2,0.2,0.2h3.6c0.1,0,0.2-0.1,0.2-0.2v-2.6C22.8,22.1,22.8,22,22.6,22z"/>
<g>
	<path class="st2" d="M64.7,27.3c0,0.8-0.6,1.4-1.4,1.4H16.9c-0.8,0-1.4-0.6-1.4-1.4v-8.8c0-0.8,0.6-1.4,1.4-1.4h46.3
		c0.8,0,1.4,0.6,1.4,1.4V27.3z"/>
</g>
<g>
	<path class="st1" d="M25.9,24.8v-5.2h0.9v2c0.1-0.1,0.3-0.2,0.5-0.3s0.4-0.1,0.6-0.1c0.2,0,0.4,0,0.5,0.1c0.2,0.1,0.3,0.2,0.4,0.3
		s0.2,0.3,0.2,0.4c0.1,0.2,0.1,0.4,0.1,0.6v2.3h-0.9v-2.3c0-0.2-0.1-0.4-0.2-0.5c-0.1-0.1-0.3-0.2-0.5-0.2c-0.1,0-0.3,0-0.4,0.1
		c-0.1,0.1-0.3,0.2-0.4,0.3v2.6H25.9z"/>
	<path class="st1" d="M31.1,24.9c-0.3,0-0.5-0.1-0.7-0.3c-0.2-0.2-0.3-0.4-0.3-0.7v-2h-0.4c0,0-0.1,0-0.1,0c0,0-0.1-0.1-0.1-0.1
		v-0.3l0.6-0.1l0.2-1c0,0,0-0.1,0.1-0.1c0,0,0.1,0,0.1,0H31v1.1h0.9v0.6H31v1.9c0,0.1,0,0.2,0.1,0.3c0.1,0.1,0.1,0.1,0.2,0.1
		c0.1,0,0.1,0,0.1,0c0,0,0.1,0,0.1,0s0.1,0,0.1,0s0,0,0.1,0c0,0,0,0,0.1,0s0,0,0.1,0.1l0.3,0.4c-0.1,0.1-0.3,0.2-0.4,0.2
		C31.4,24.8,31.3,24.9,31.1,24.9z"/>
	<path class="st1" d="M33.8,24.9c-0.3,0-0.5-0.1-0.7-0.3c-0.2-0.2-0.3-0.4-0.3-0.7v-2h-0.4c0,0-0.1,0-0.1,0c0,0-0.1-0.1-0.1-0.1
		v-0.3l0.6-0.1l0.2-1c0,0,0-0.1,0.1-0.1c0,0,0.1,0,0.1,0h0.4v1.1h0.9v0.6h-0.9v1.9c0,0.1,0,0.2,0.1,0.3c0.1,0.1,0.1,0.1,0.2,0.1
		c0.1,0,0.1,0,0.1,0c0,0,0.1,0,0.1,0s0.1,0,0.1,0s0,0,0.1,0c0,0,0,0,0.1,0s0,0,0.1,0.1l0.3,0.4c-0.1,0.1-0.3,0.2-0.4,0.2
		C34.2,24.8,34,24.9,33.8,24.9z"/>
	<path class="st1" d="M35.3,26v-4.8h0.5c0.1,0,0.1,0,0.1,0c0,0,0.1,0.1,0.1,0.1l0.1,0.3c0.1-0.2,0.3-0.3,0.5-0.4
		c0.2-0.1,0.4-0.2,0.7-0.2c0.2,0,0.4,0,0.5,0.1c0.2,0.1,0.3,0.2,0.4,0.4s0.2,0.3,0.3,0.6c0.1,0.2,0.1,0.5,0.1,0.8
		c0,0.3,0,0.5-0.1,0.7s-0.2,0.4-0.3,0.6c-0.1,0.2-0.3,0.3-0.5,0.4c-0.2,0.1-0.4,0.1-0.6,0.1c-0.2,0-0.4,0-0.5-0.1
		c-0.1-0.1-0.3-0.1-0.4-0.3V26H35.3z M37,21.8c-0.2,0-0.3,0-0.5,0.1c-0.1,0.1-0.2,0.2-0.4,0.3v1.6c0.1,0.1,0.2,0.2,0.3,0.3
		s0.2,0.1,0.4,0.1c0.1,0,0.2,0,0.4-0.1c0.1,0,0.2-0.1,0.3-0.2c0.1-0.1,0.1-0.2,0.2-0.4c0-0.2,0.1-0.3,0.1-0.5c0-0.2,0-0.4-0.1-0.5
		c0-0.1-0.1-0.3-0.1-0.4c-0.1-0.1-0.1-0.2-0.2-0.2S37.1,21.8,37,21.8z"/>
	<path class="st1" d="M41.4,21.9C41.4,21.9,41.4,22,41.4,21.9C41.3,22,41.3,22,41.3,22c0,0-0.1,0-0.1,0c0,0-0.1,0-0.2-0.1
		c-0.1,0-0.1-0.1-0.2-0.1c-0.1,0-0.2,0-0.3,0c-0.2,0-0.3,0-0.4,0.1c-0.1,0.1-0.1,0.2-0.1,0.3c0,0.1,0,0.1,0.1,0.2
		c0,0.1,0.1,0.1,0.2,0.1s0.2,0.1,0.3,0.1c0.1,0,0.2,0.1,0.3,0.1c0.1,0,0.2,0.1,0.3,0.1c0.1,0,0.2,0.1,0.3,0.2
		c0.1,0.1,0.1,0.2,0.2,0.3c0,0.1,0.1,0.2,0.1,0.4c0,0.2,0,0.3-0.1,0.5c-0.1,0.1-0.2,0.3-0.3,0.4c-0.1,0.1-0.3,0.2-0.4,0.2
		c-0.2,0.1-0.4,0.1-0.6,0.1c-0.1,0-0.2,0-0.4,0c-0.1,0-0.2-0.1-0.3-0.1s-0.2-0.1-0.3-0.1c-0.1-0.1-0.2-0.1-0.2-0.2l0.2-0.3
		c0,0,0.1-0.1,0.1-0.1c0,0,0.1,0,0.1,0s0.1,0,0.2,0s0.1,0.1,0.2,0.1c0.1,0,0.1,0.1,0.2,0.1c0.1,0,0.2,0,0.3,0c0.1,0,0.2,0,0.3,0
		c0.1,0,0.1-0.1,0.2-0.1s0.1-0.1,0.1-0.1c0-0.1,0-0.1,0-0.2c0-0.1,0-0.2-0.1-0.2c0-0.1-0.1-0.1-0.2-0.1c-0.1,0-0.2-0.1-0.3-0.1
		c-0.1,0-0.2-0.1-0.3-0.1c-0.1,0-0.2-0.1-0.3-0.1c-0.1,0-0.2-0.1-0.3-0.2c-0.1-0.1-0.1-0.2-0.2-0.3c0-0.1-0.1-0.2-0.1-0.4
		c0-0.1,0-0.3,0.1-0.4c0.1-0.1,0.1-0.2,0.3-0.3s0.3-0.2,0.4-0.2s0.4-0.1,0.6-0.1c0.2,0,0.5,0,0.7,0.1s0.4,0.2,0.5,0.3L41.4,21.9z"/>
	<path class="st1" d="M42.3,21.8c0-0.1,0-0.1,0-0.2c0-0.1,0.1-0.1,0.1-0.2c0,0,0.1-0.1,0.2-0.1c0.1,0,0.1,0,0.2,0c0.1,0,0.1,0,0.2,0
		s0.1,0.1,0.2,0.1c0,0,0.1,0.1,0.1,0.2c0,0.1,0,0.1,0,0.2c0,0.1,0,0.1,0,0.2c0,0.1-0.1,0.1-0.1,0.2c0,0-0.1,0.1-0.2,0.1
		s-0.1,0-0.2,0c-0.1,0-0.1,0-0.2,0c-0.1,0-0.1-0.1-0.2-0.1c0,0-0.1-0.1-0.1-0.2C42.3,22,42.3,21.9,42.3,21.8z M42.3,24.3
		c0-0.1,0-0.1,0-0.2c0-0.1,0.1-0.1,0.1-0.2s0.1-0.1,0.2-0.1c0.1,0,0.1,0,0.2,0c0.1,0,0.1,0,0.2,0s0.1,0.1,0.2,0.1s0.1,0.1,0.1,0.2
		c0,0.1,0,0.1,0,0.2c0,0.1,0,0.1,0,0.2c0,0.1-0.1,0.1-0.1,0.2s-0.1,0.1-0.2,0.1c-0.1,0-0.1,0-0.2,0c-0.1,0-0.1,0-0.2,0
		c-0.1,0-0.1-0.1-0.2-0.1s-0.1-0.1-0.1-0.2C42.3,24.5,42.3,24.4,42.3,24.3z"/>
	<path class="st0" d="M44.5,24.8c0,0.1,0,0.1-0.1,0.1c0,0-0.1,0.1-0.1,0.1s-0.1,0-0.1,0.1c0,0-0.1,0-0.1,0h-0.4l2-5.2
		c0-0.1,0.1-0.2,0.2-0.2c0.1-0.1,0.2-0.1,0.3-0.1h0.4L44.5,24.8z"/>
	<path class="st0" d="M46.6,24.8c0,0.1,0,0.1-0.1,0.1c0,0-0.1,0.1-0.1,0.1s-0.1,0-0.1,0.1c0,0-0.1,0-0.1,0h-0.4l2-5.2
		c0-0.1,0.1-0.2,0.2-0.2c0.1-0.1,0.2-0.1,0.3-0.1h0.4L46.6,24.8z"/>
</g>
</svg>
