<?xml version="1.0" encoding="utf-8"?>
<!-- Generator: Adobe Illustrator 19.1.0, SVG Export Plug-In . SVG Version: 6.00 Build 0)  -->
<svg version="1.1" id="Layer_1" xmlns="http://www.w3.org/2000/svg" xmlns:xlink="http://www.w3.org/1999/xlink" x="0px" y="0px"
	 viewBox="0 0 70.9 45.4" style="enable-background:new 0 0 70.9 45.4;" xml:space="preserve">
<style type="text/css">
	.st0{fill:#59595B;}
</style>
<path class="st0" d="M51.5,29.9c-0.1,0.7-0.7,1.3-1.4,1.3c0,0-0.1,0-0.1,0c0.1-0.7,0.7-1.2,1.4-1.2C51.4,30,51.4,30,51.5,29.9z
	 M46.6,25c-1.4,0-2.6,1.2-2.6,2.6v2.2c0,1.4,1.2,2.6,2.6,2.6c0.3,0,0.6-0.3,0.6-0.6c0-0.3-0.3-0.6-0.6-0.6c-0.8,0-1.4-0.6-1.4-1.4
	v-2.2c0-0.8,0.6-1.4,1.4-1.4h3.4c0.8,0,1.4,0.6,1.4,1.4v1.2c0,0-0.1,0-0.2,0c-1.4,0-2.6,1.2-2.6,2.6v2.2c0,1.4,1.2,2.6,2.6,2.6h3.4
	c1.4,0,2.6-1.2,2.6-2.6v-2.2c0-1.4-1.2-2.6-2.6-2.6c-0.3,0-0.6,0.3-0.6,0.6c0,0.3,0.3,0.6,0.6,0.6c0.8,0,1.4,0.6,1.4,1.4v2.2
	c0,0.8-0.6,1.4-1.4,1.4h-3.4c-0.8,0-1.4-0.6-1.4-1.4v-1.2c0,0,0.1,0,0.2,0c1.4,0,2.6-1.2,2.6-2.6v-2.2c0-1.4-1.2-2.6-2.6-2.6H46.6z
	 M10,12.1h50.9v28.2c0,0.4-0.3,0.6-0.6,0.6H10.6c-0.4,0-0.6-0.3-0.6-0.6V12.1z M23.1,7.3c0.3,0,0.6,0.3,0.6,0.6
	c0,0.3-0.2,0.6-0.6,0.6c-0.3,0-0.6-0.3-0.6-0.6C22.5,7.6,22.8,7.3,23.1,7.3z M18.3,7.3c0.3,0,0.6,0.3,0.6,0.6c0,0.3-0.2,0.6-0.6,0.6
	c-0.3,0-0.6-0.3-0.6-0.6C17.7,7.6,17.9,7.3,18.3,7.3z M13.4,7.3c0.3,0,0.6,0.3,0.6,0.6c0,0.3-0.3,0.6-0.6,0.6
	c-0.3,0-0.6-0.3-0.6-0.6C12.8,7.6,13.1,7.3,13.4,7.3z M23.1,6.1c-1,0-1.8,0.8-1.8,1.8c0,1,0.8,1.8,1.8,1.8c1,0,1.8-0.8,1.8-1.8
	C24.9,6.9,24.1,6.1,23.1,6.1z M18.3,6.1c-1,0-1.8,0.8-1.8,1.8c0,1,0.8,1.8,1.8,1.8c1,0,1.8-0.8,1.8-1.8C20,6.9,19.2,6.1,18.3,6.1z
	 M13.4,6.1c-1,0-1.8,0.8-1.8,1.8c0,1,0.8,1.8,1.8,1.8c1,0,1.8-0.8,1.8-1.8C15.2,6.9,14.4,6.1,13.4,6.1z M28.1,5h32.2
	c0.4,0,0.6,0.3,0.6,0.6v5.2H30.3l-2.1-5.4C28.2,5.3,28.1,5.1,28.1,5z M10.6,5H26c0.4,0,1.1,0.4,1.2,0.8l1.9,5H10V5.6
	C10,5.2,10.2,5,10.6,5z M10.6,3.8c-1,0-1.8,0.8-1.8,1.8v34.6c0,1,0.8,1.8,1.8,1.8h49.7c1,0,1.8-0.8,1.8-1.8V5.6c0-1-0.8-1.8-1.8-1.8
	L10.6,3.8L10.6,3.8z"/>
</svg>
