<?xml version="1.0" encoding="utf-8"?>
<!-- Generator: Adobe Illustrator 19.1.0, SVG Export Plug-In . SVG Version: 6.00 Build 0)  -->
<svg version="1.1" id="Layer_1" xmlns="http://www.w3.org/2000/svg" xmlns:xlink="http://www.w3.org/1999/xlink" x="0px" y="0px"
	 viewBox="0 0 465 111" style="enable-background:new 0 0 465 111;" xml:space="preserve">
<style type="text/css">
	.st0{fill:#FFFFFF;}
</style>
<g>
	<g>
		<path class="st0" d="M48.3,55.4c4.8-2.5,7.2-6.4,7.2-11.6c0-5.8-2.8-10.1-8.3-13.4c-2.5-1.4-6.7-2-12.8-2H4.8v60.1h27.9
			c9.5,0,16.1-1,20.9-6.5c2.9-3.3,4.5-7.4,4.5-12.1C58,62.9,54.4,57.9,48.3,55.4 M22.4,42.1h8.5c4.8,0,7.1,1.2,7.1,4.8
			c0,3.7-2.2,5-7.1,5h-8.5V42.1z M32.5,74.6H22.4V63.2h10c5.1,0,7.7,1.8,7.7,5.7C40.1,72.8,37.5,74.6,32.5,74.6 M372.2,88.5h19.4
			V28.4h-19.4V88.5z M283.4,66.9h19.2V50h-19.2v-4.6H312v-17h-48v60.1h48V71.6h-28.6V66.9z M427.5,28.4c-18.5,0-33.4,13.5-33.4,30
			c0,16.6,15,30,33.4,30c18.5,0,33.4-13.5,33.4-30C460.9,41.9,445.9,28.4,427.5,28.4 M427.5,71.6c-8.1,0-14.6-5.9-14.6-13.1
			c0-7.2,6.5-13.1,14.6-13.1c8.1,0,14.6,5.9,14.6,13.1C442.1,65.7,435.5,71.6,427.5,71.6 M165.9,59.5l-21.5-31.1H125v60.1h19.4V57.4
			l21.5,31.1h19.4V28.4h-19.4V59.5z M78.7,28.4L54.4,88.5h20.5l5.5-16.6h18.1l5,16.6h20L101,28.4H78.7z M85.8,55.3l4-12.3l3.7,12.3
			H85.8z M311.7,58.5c0,16.6,15,30,33.4,30h24.5V52.7h-26.3v14.3h9.7v4.6h-7.9v0h0c-8.1,0-14.6-5.9-14.6-13.1
			c0-7.2,6.5-13.1,14.6-13.1h24.5v-17h-24.5C326.7,28.4,311.7,41.9,311.7,58.5 M240.2,60.9c0-0.9,0.3-1.8,1.1-2.3
			c8.2-4.4,14.5-14.2,14.5-23.2c0-15.7-15-28.4-33.4-28.4h-34.6v81.5h21.8V26.2h12.8c6.6,0,12,4.8,12,10.8c0,6-5.5,9.7-12,10.8
			c-5.9,1-9.2,6-9.2,10.5c0,3.6,1.6,6.5,2.9,8.1l29.3,36.5h28l-32.5-40.5C240.4,62.1,240.2,61.5,240.2,60.9"/>
	</g>
</g>
</svg>
