<?xml version="1.0" encoding="utf-8"?>
<!-- Generator: Adobe Illustrator 19.1.0, SVG Export Plug-In . SVG Version: 6.00 Build 0)  -->
<svg version="1.1" id="Layer_1" xmlns="http://www.w3.org/2000/svg" xmlns:xlink="http://www.w3.org/1999/xlink" x="0px" y="0px"
	 viewBox="0 0 323 215" style="enable-background:new 0 0 323 215;" xml:space="preserve">
<style type="text/css">
	.st0{fill:#5C192E;}
</style>
<g>
	<g>
		<path class="st0" d="M21.9,121.1h244.9l-61.8,61.8c-5.4,5.4-5.4,14.2,0,19.6c5.4,5.4,14.2,5.4,19.6,0l85.4-85.4
			c5.4-5.4,5.4-14.2,0-19.6l-85.4-85.4c-2.7-2.7-6.2-4.1-9.8-4.1c-3.5,0-7.1,1.4-9.8,4.1c-5.4,5.4-5.4,14.2,0,19.6l61.8,61.8H21.9
			C14.2,93.4,8,99.6,8,107.3C8,114.9,14.2,121.1,21.9,121.1L21.9,121.1z M21.9,121.1"/>
	</g>
</g>
</svg>
